# xmcd CD database file
#
# Track frame offsets:
#	150
#	14580
#	27812
#	42545
#	54795
#	67070
#	79735
#	92495
#	98365
#	111322
#	123197
#	134240
#	145790
#	156717
#	167697
#	178405
#	190095
#	194845
#	202950
#	216205
#	222757
#	238407
#	251655
#	265235
#	278697
#	292115
#	305192
#	306725
#	319990
#	333142
#
# Disc length: 4632 seconds
#
# Revision: 1
# Processed by: cddbd v1.4PL0 Copyright (c) Steve Scherf et al.
# Submitted via: CDex 1.50Beta7
#
DISCID=dd12161e
DTITLE=Bill Monroe - Blue Moon Of Kentucky 1936-1949 [CD5]
DYEAR=2002
DGENRE=Bluegrass
TTITLE0=Travelin' This Lonesome Road (1950)
TTITLE1=Blue Grass Stomp (1949)
TTITLE2=The Girl in the Blue Velvet Band (1949)
TTITLE3=Kentucky Waltz - take 2 (1992)
TTITLE4=True Life Blues - take 4 (2002)
TTITLE5=True Life Blues - take 3 (2002)
TTITLE6=True Life Blues - take 2 (1992)
TTITLE7=Nobody Loves Me - take BD (1992)
TTITLE8=Nobody Loves Me - take 3 (1992)
TTITLE9=Nobody Loves Me - take 1 (2002)
TTITLE10=Goodbye Old Pal - take 2 (1992)
TTITLE11=Footprints in the Snow - take 2 (2002)
TTITLE12=Blue Grass Special - instr. - take 2 (2002)
TTITLE13=Blue Grass Special - take 3 (1992)
TTITLE14=Heavy Traffic Ahead - take 2 (2002)
TTITLE15=Why Did You Wander¿ - take 2 (2002)
TTITLE16=Summertime is Past and Gone - take BD1 (2002)
TTITLE17=Summertime is Past and Gone - take BD2 (2002)
TTITLE18=Summertime is Past and Gone - take 2 (1992)
TTITLE19=Summertime is Past and Gone - take BD3 (2002)
TTITLE20=Blue Yodel, No. 4 - take 2 (1984)
TTITLE21=Will You be Loving Another Man¿ - take 2 (2002)
TTITLE22=How Will I Explain About You¿ - take 2 (2002)
TTITLE23=How Will I Explain About You¿ - take 3 (1992)
TTITLE24=Wicked Path of Sin - take 2 (1992)
TTITLE25=It's Mighty Dark to Travel - take 2 (1992)
TTITLE26=I'm Going Back to Old Kentucky - take BD (1992)
TTITLE27=I'm Going Back to Old Kentucky - take 2 (1992)
TTITLE28=It's Mighty Dark to Travel - take 3 (2002)
TTITLE29=Little Cabin Home on the Hill - take 2 (1992)
EXTD=YEAR: 2002
EXTT0=
EXTT1=
EXTT2=
EXTT3=
EXTT4=
EXTT5=
EXTT6=
EXTT7=
EXTT8=
EXTT9=
EXTT10=
EXTT11=
EXTT12=
EXTT13=
EXTT14=
EXTT15=
EXTT16=
EXTT17=
EXTT18=
EXTT19=
EXTT20=
EXTT21=
EXTT22=
EXTT23=
EXTT24=
EXTT25=
EXTT26=
EXTT27=
EXTT28=
EXTT29=
PLAYORDER=
